<svg id="Capa_1" enable-background="new 0 0 512 512" height="512" viewBox="0 0 512 512" width="512" xmlns="http://www.w3.org/2000/svg"><g><g><circle cx="77.222" cy="265.694" fill="#ffdf8e" r="34.555"/></g><g><path d="m471.473 339.942-62.807-78.36-82.826.482c-1.589-1.986-11.207-14.936-19.911-26.69-7.399-9.99-22.306-10.107-29.861-.234l-43.211 56.467c-7.233 9.041-20.909 9.025-28.217 0s-52.515-82.369-52.515-82.369c-6.048-9.487-20.057-9.007-25.441.872l-77.501 142.185c-4.276 7.845-6.516 16.636-6.516 25.57v76.367h437.333v-89.983c0-8.835-3.007-17.407-8.527-24.307z" fill="#d78c57"/></g><g><path d="m345.387 325.618-123.298 59.16c-8.67 4.16-14.185 12.924-14.185 22.54v42.266h296.596v-42.266c0-9.616-5.515-18.38-14.185-22.54l-123.298-59.16c-6.837-3.281-14.793-3.281-21.63 0z" fill="#fafaef"/></g><g><path d="m490.315 384.777-123.298-59.16c-6.837-3.28-14.793-3.28-21.63 0l-21.602 10.365c1.648.416 3.267.975 4.83 1.695l133.523 61.517c9.389 4.326 15.362 13.439 15.362 23.438v26.95h27v-42.266c0-9.615-5.516-18.379-14.185-22.539z" fill="#f2e4c8"/></g><g><path d="m113.961 435.749h-75.94c-6.278 0-11.367-5.089-11.367-11.367v-45.042c0-4.392 2.03-8.537 5.5-11.229l35.123-27.254c5.127-3.979 12.299-3.979 17.426 0l35.123 27.254c3.47 2.692 5.5 6.837 5.5 11.229v45.043c.001 6.277-5.088 11.366-11.365 11.366z" fill="#fafaef"/></g><g><path d="m212.633 435.749h-75.939c-6.278 0-11.367-5.089-11.367-11.367v-45.042c0-4.392 2.03-8.537 5.5-11.229l35.123-27.254c5.127-3.979 12.299-3.979 17.426 0l35.123 27.254c3.47 2.692 5.5 6.837 5.5 11.229v45.043c.001 6.277-5.088 11.366-11.366 11.366z" fill="#ffdf8e"/></g><g><path d="m7.5 466.583v-15.833c0-8.284 6.716-15 15-15h467c8.284 0 15 6.716 15 15v15.833c0 8.284-6.716 15-15 15h-467c-8.285 0-15-6.716-15-15z" fill="#b1e7c0"/></g><g><path d="m119.827 368.111-35.123-27.254c-5.128-3.979-12.299-3.979-17.426 0l-6.287 4.878 28.836 22.375c3.469 2.692 5.5 6.837 5.5 11.229v45.043c0 6.278-5.089 11.367-11.367 11.367h30c6.278 0 11.367-5.089 11.367-11.367v-45.042c0-4.392-2.03-8.537-5.5-11.229z" fill="#f2e4c8"/></g><g><path d="m218.5 368.111-35.123-27.254c-5.128-3.979-12.299-3.979-17.426 0l-6.287 4.878 28.836 22.375c3.47 2.692 5.5 6.837 5.5 11.229v45.043c0 6.278-5.089 11.367-11.367 11.367h30c6.278 0 11.367-5.089 11.367-11.367v-45.042c0-4.392-2.03-8.537-5.5-11.229z" fill="#ffcd75"/></g><g><path d="m489.5 435.749h-30c8.284 0 15 6.716 15 15v15.833c0 8.284-6.716 15-15 15h30c8.284 0 15-6.716 15-15v-15.833c0-8.284-6.716-15-15-15z" fill="#9bdead"/></g><g><path d="m355.134 30.42c-81.154.571-147.242 67.159-147.23 148.316.003 24.224 5.815 47.092 16.119 67.285 18.85 36.944 86.794 137.331 117.24 181.827 7.189 10.506 22.689 10.506 29.878 0 30.446-44.496 98.39-144.883 117.24-181.827 10.306-20.199 16.119-43.074 16.119-67.307 0-82.258-66.973-148.874-149.366-148.294z" fill="#b5e9ff"/></g><g><circle cx="356.202" cy="178.691" fill="#fafaef" r="106.667"/></g><g><path d="m394.172 225.583h-75.939c-6.278 0-11.367-5.089-11.367-11.367v-45.043c0-4.392 2.03-8.537 5.5-11.229l35.123-27.254c5.128-3.978 12.299-3.978 17.426 0l35.123 27.254c3.47 2.692 5.5 6.837 5.5 11.229v45.043c0 6.278-5.089 11.367-11.366 11.367z" fill="#ffdf8e"/></g><g><path d="m355.134 30.42c-4.684.033-9.314.296-13.888.759 74.836 7.54 133.254 70.712 133.254 147.535 0 24.233-5.812 47.108-16.119 67.307-18.838 36.92-86.704 137.198-117.179 181.738.02.029.041.06.061.089 7.189 10.506 22.689 10.506 29.878 0 30.446-44.496 98.39-144.883 117.24-181.827 10.306-20.2 16.119-43.075 16.119-67.307 0-82.258-66.973-148.874-149.366-148.294z" fill="#93ddfe"/></g><g><path d="m356.202 72.024c-5.092 0-10.098.365-15 1.055 51.807 7.292 91.667 51.794 91.667 105.612s-39.86 98.319-91.667 105.612c4.902.69 9.908 1.055 15 1.055 58.91 0 106.667-47.756 106.667-106.667s-47.757-106.667-106.667-106.667z" fill="#f2e4c8"/></g><g><path d="m400.038 157.944-35.123-27.254c-5.127-3.979-12.299-3.979-17.426 0l-6.287 4.878 28.836 22.375c3.47 2.692 5.5 6.837 5.5 11.229v45.043c0 6.278-5.089 11.367-11.367 11.367h30c6.278 0 11.367-5.089 11.367-11.367v-45.043c0-4.39-2.03-8.535-5.5-11.228z" fill="#ffcd75"/></g><g><path d="m493.559 378.016-6.064-2.91c0-.03.005-.059.005-.089v-10.767c0-10.499-3.611-20.794-10.174-28.998l-19.358-24.151c16.164-25.205 30.039-47.845 37.094-61.671 11.239-22.027 16.938-45.819 16.938-70.716 0-41.822-16.345-81.085-46.023-110.555-29.676-29.467-69.096-45.504-110.895-45.239-34.866.246-67.81 11.863-95.271 33.596-3.248 2.57-3.797 7.287-1.227 10.535 2.571 3.248 7.289 3.798 10.535 1.227 24.815-19.639 54.576-30.137 86.067-30.358.342-.002.681-.004 1.021-.004 37.429 0 72.623 14.497 99.199 40.887 26.822 26.632 41.594 62.115 41.594 99.911 0 22.505-5.148 44.003-15.299 63.898-18.78 36.807-87.902 138.841-116.749 181.001-2.007 2.933-5.196 4.615-8.75 4.615-3.553 0-6.742-1.682-8.749-4.615-28.845-42.157-97.965-144.184-116.749-181.001-10.148-19.889-15.296-41.381-15.3-63.877-.005-32.42 11.408-64.131 32.135-89.293 2.634-3.197 2.177-7.924-1.021-10.557-3.195-2.633-7.923-2.179-10.558 1.02-22.934 27.841-35.562 62.94-35.557 98.832.004 24.889 5.703 48.673 16.939 70.693 3.76 7.369 9.461 17.246 16.407 28.673l-6.79 8.874c-2.006 2.474-4.97 3.896-8.143 3.906-.011 0-.021 0-.031 0-3.229 0-6.259-1.455-8.314-3.995-5.746-7.096-39.456-61.299-51.96-81.586-.021-.032-.04-.064-.061-.096-4.281-6.716-11.61-10.569-19.55-10.29-7.961.272-14.989 4.61-18.801 11.604l-15.063 27.634c-7.576-6.703-17.378-10.516-27.815-10.516-23.19 0-42.055 18.866-42.055 42.055 0 19.227 12.974 35.469 30.623 40.463 0 0-24.22 44.521-24.699 45.527l-13.533 10.501c-5.34 4.143-8.403 10.396-8.403 17.155 0 0 .163 47.793.451 49.102-11.043 1.426-19.605 10.883-19.605 22.308v15.833c0 12.407 10.093 22.5 22.5 22.5h117.872c4.143 0 7.5-3.358 7.5-7.5s-3.357-7.5-7.5-7.5h-117.872c-4.135 0-7.5-3.365-7.5-7.5v-15.833c0-4.136 3.365-7.5 7.5-7.5h467c4.136 0 7.5 3.364 7.5 7.5v15.833c0 4.135-3.364 7.5-7.5 7.5h-319.128c-4.143 0-7.5 3.358-7.5 7.5s3.357 7.5 7.5 7.5h319.128c12.406 0 22.5-10.093 22.5-22.5v-59.266c0-12.424-7.239-23.925-18.441-29.3zm-27.942-33.389c4.439 5.548 6.883 12.517 6.883 19.622v3.662l-39.276-18.845c5.446-8.245 10.881-16.535 16.17-24.679zm-234.118 79.756v-35.802l56.048-26.892c17.071 25.667 33.504 49.875 44.905 66.561h-101.354c.261-1.249.401-2.542.401-3.867zm-98.23-210.683c1.796-3.294 4.895-3.749 6.145-3.792 1.232-.047 4.346.198 6.362 3.322 4.818 7.817 45.657 73.984 53.036 83.097 4.92 6.075 12.194 9.555 19.972 9.555.024 0 .051 0 .076-.001 7.76-.022 14.997-3.518 19.855-9.589.033-.042.067-.085.1-.128l3.367-4.4c11.004 17.602 23.976 37.583 37 57.301l-48.789 23.409c-1.333-4.025-3.831-7.603-7.294-10.29l-35.123-27.254c-7.836-6.081-18.783-6.081-26.621 0l-35.124 27.253c-.309.24-.608.488-.902.742-.293-.253-.593-.502-.902-.741l-35.124-27.254c-5.875-4.558-13.497-5.699-20.247-3.424zm-83.102 51.994c0-14.918 12.137-27.055 27.055-27.055 7.901 0 15.24 3.393 20.341 9.227l-24.305 44.59c-13.046-1.924-23.091-13.19-23.091-26.762zm33.324 162.555v-24.872c0-4.142-3.358-7.5-7.5-7.5s-7.5 3.358-7.5 7.5v24.872h-30.47c-2.132 0-3.867-1.734-3.867-3.867v-45.042c0-2.09.947-4.022 2.598-5.304l35.124-27.254c1.211-.94 2.664-1.41 4.115-1.41 1.452 0 2.904.47 4.115 1.41l35.124 27.254c1.651 1.281 2.598 3.213 2.598 5.303v45.043c0 2.132-1.734 3.867-3.867 3.867zm98.673 0v-24.872c0-4.142-3.357-7.5-7.5-7.5s-7.5 3.358-7.5 7.5v24.872h-30.47c-2.132 0-3.866-1.734-3.866-3.867v-45.042c0-2.09.946-4.023 2.597-5.304l35.124-27.254c1.212-.94 2.663-1.41 4.115-1.41s2.903.47 4.115 1.41l35.123 27.254c1.651 1.281 2.598 3.213 2.598 5.303v45.043c0 2.132-1.734 3.867-3.866 3.867zm307.336 0h-109.548c11.401-16.687 27.834-40.895 44.904-66.561l62.214 29.851c6.031 2.894 9.929 9.087 9.929 15.778v22.223c-2.347-.833-4.87-1.291-7.499-1.291z"/><path d="m356.202 292.858c62.952 0 114.167-51.215 114.167-114.167s-51.215-114.166-114.167-114.166c-62.951 0-114.166 51.215-114.166 114.166 0 62.952 51.214 114.167 114.166 114.167zm0-213.334c54.681 0 99.167 44.486 99.167 99.166s-44.486 99.167-99.167 99.167-99.166-44.486-99.166-99.167 44.485-99.166 99.166-99.166z"/><path d="m318.232 233.083h75.939c10.403 0 18.867-8.463 18.867-18.867v-45.043c0-6.758-3.062-13.011-8.402-17.154l-35.124-27.253c-7.836-6.082-18.785-6.081-26.621 0l-35.123 27.253c-5.34 4.144-8.402 10.396-8.402 17.154v45.043c0 10.404 8.463 18.867 18.866 18.867zm-3.866-63.91c0-2.089.947-4.022 2.598-5.304l35.123-27.253c1.212-.94 2.663-1.41 4.115-1.41s2.904.47 4.115 1.41l35.124 27.253c1.65 1.281 2.598 3.214 2.598 5.304v45.043c0 2.132-1.734 3.867-3.867 3.867h-30.47v-24.872c0-4.142-3.357-7.5-7.5-7.5s-7.5 3.358-7.5 7.5v24.872h-30.47c-2.132 0-3.866-1.734-3.866-3.867z"/></g></g></svg>